<?xml version="1.0" encoding="UTF-8" standalone="no"?>
<!DOCTYPE svg PUBLIC "-//W3C//DTD SVG 1.1//EN"
 "http://www.w3.org/Graphics/SVG/1.1/DTD/svg11.dtd">
<!-- Generated by graphviz version 2.43.0 (0)
 -->
<!-- Title: G Pages: 1 -->
<svg width="801pt" height="1032pt"
 viewBox="0.00 0.00 801.10 1031.82" xmlns="http://www.w3.org/2000/svg" xmlns:xlink="http://www.w3.org/1999/xlink">
<g id="graph0" class="graph" transform="scale(1 1) rotate(0) translate(4 1027.82)">
<title>G</title><style>.edge>path:hover{stroke-width:8}</style>
<polygon fill="white" stroke="transparent" points="-4,4 -4,-1027.82 797.1,-1027.82 797.1,4 -4,4"/>
<!-- basix -->
<g id="node1" class="node">
<title>basix</title><style>.edge>path:hover{stroke-width:8}</style>
<ellipse fill="#c04040" stroke="black" cx="165.53" cy="-738.35" rx="27" ry="18"/>
<text text-anchor="middle" x="165.53" y="-735.85" font-family="Helvetica,sans-Serif" font-size="10.00" fill="#ffffff">basix</text>
</g>
<!-- fealax_basis -->
<g id="node3" class="node">
<title>fealax_basis</title><style>.edge>path:hover{stroke-width:8}</style>
<polygon fill="blue" stroke="black" points="203.53,-602.35 127.53,-602.35 127.53,-566.35 203.53,-566.35 203.53,-602.35"/>
<text text-anchor="middle" x="165.53" y="-581.85" font-family="Helvetica,sans-Serif" font-size="10.00" fill="white">fealax.basis</text>
</g>
<!-- basix&#45;&gt;fealax_basis -->
<g id="edge1" class="edge">
<title>basix&#45;&gt;fealax_basis</title><style>.edge>path:hover{stroke-width:8}</style>
<path fill="none" stroke="black" d="M165.53,-720.21C165.53,-694.1 165.53,-644.1 165.53,-612.86"/>
<polygon fill="#c04040" stroke="black" points="169.03,-612.66 165.53,-602.66 162.03,-612.66 169.03,-612.66"/>
</g>
<!-- fealax -->
<g id="node2" class="node">
<title>fealax</title><style>.edge>path:hover{stroke-width:8}</style>
<polygon fill="blue" stroke="black" points="547.53,-36 493.53,-36 493.53,0 547.53,0 547.53,-36"/>
<text text-anchor="middle" x="520.53" y="-15.5" font-family="Helvetica,sans-Serif" font-size="10.00" fill="white">fealax</text>
</g>
<!-- fealax_basis&#45;&gt;fealax -->
<g id="edge2" class="edge">
<title>fealax_basis&#45;&gt;fealax</title><style>.edge>path:hover{stroke-width:8}</style>
<path fill="none" stroke="black" d="M162.78,-566.24C161.02,-551.29 159.98,-529.16 165.53,-510.85"/>
<path fill="none" stroke="black" d="M165.53,-508.85C174.54,-479.08 158.81,-469.23 165.53,-438.85"/>
</g>
<!-- fealax_fe -->
<g id="node4" class="node">
<title>fealax_fe</title><style>.edge>path:hover{stroke-width:8}</style>
<polygon fill="blue" stroke="black" points="291.53,-455.85 231.53,-455.85 231.53,-419.85 291.53,-419.85 291.53,-455.85"/>
<text text-anchor="middle" x="261.53" y="-435.35" font-family="Helvetica,sans-Serif" font-size="10.00" fill="white">fealax.fe</text>
</g>
<!-- fealax_basis&#45;&gt;fealax_fe -->
<g id="edge3" class="edge">
<title>fealax_basis&#45;&gt;fealax_fe</title><style>.edge>path:hover{stroke-width:8}</style>
<path fill="none" stroke="black" d="M165.53,-508.85C169.69,-495.09 197.78,-475.57 222.51,-460.63"/>
<polygon fill="blue" stroke="black" points="224.59,-463.46 231.41,-455.36 221.03,-457.44 224.59,-463.46"/>
</g>
<!-- fealax_mesh -->
<g id="node8" class="node">
<title>fealax_mesh</title><style>.edge>path:hover{stroke-width:8}</style>
<polygon fill="blue" stroke="black" points="137.03,-527.85 60.03,-527.85 60.03,-491.85 137.03,-491.85 137.03,-527.85"/>
<text text-anchor="middle" x="98.53" y="-507.35" font-family="Helvetica,sans-Serif" font-size="10.00" fill="white">fealax.mesh</text>
</g>
<!-- fealax_basis&#45;&gt;fealax_mesh -->
<g id="edge4" class="edge">
<title>fealax_basis&#45;&gt;fealax_mesh</title><style>.edge>path:hover{stroke-width:8}</style>
<path fill="none" stroke="black" d="M149.65,-566.17C141.14,-556.96 130.51,-545.46 121.15,-535.33"/>
<polygon fill="blue" stroke="black" points="123.65,-532.88 114.29,-527.91 118.51,-537.63 123.65,-532.88"/>
</g>
<!-- fealax_problem_assembly -->
<g id="node10" class="node">
<title>fealax_problem_assembly</title><style>.edge>path:hover{stroke-width:8}</style>
<polygon fill="blue" stroke="black" points="373.53,-306.85 309.53,-306.85 309.53,-265.85 373.53,-265.85 373.53,-306.85"/>
<text text-anchor="middle" x="341.53" y="-294.85" font-family="Helvetica,sans-Serif" font-size="10.00" fill="white">fealax.</text>
<text text-anchor="middle" x="341.53" y="-283.85" font-family="Helvetica,sans-Serif" font-size="10.00" fill="white">problem.</text>
<text text-anchor="middle" x="341.53" y="-272.85" font-family="Helvetica,sans-Serif" font-size="10.00" fill="white">assembly</text>
</g>
<!-- fealax_fe&#45;&gt;fealax_problem_assembly -->
<g id="edge5" class="edge">
<title>fealax_fe&#45;&gt;fealax_problem_assembly</title><style>.edge>path:hover{stroke-width:8}</style>
<path fill="none" stroke="black" d="M341.53,-362.35C346.97,-348.21 347.46,-331.44 346.38,-317.34"/>
<polygon fill="blue" stroke="black" points="349.84,-316.74 345.31,-307.17 342.88,-317.48 349.84,-316.74"/>
</g>
<!-- fealax_problem_kernels -->
<g id="node12" class="node">
<title>fealax_problem_kernels</title><style>.edge>path:hover{stroke-width:8}</style>
<polygon fill="blue" stroke="black" points="291.53,-306.85 231.53,-306.85 231.53,-265.85 291.53,-265.85 291.53,-306.85"/>
<text text-anchor="middle" x="261.53" y="-294.85" font-family="Helvetica,sans-Serif" font-size="10.00" fill="white">fealax.</text>
<text text-anchor="middle" x="261.53" y="-283.85" font-family="Helvetica,sans-Serif" font-size="10.00" fill="white">problem.</text>
<text text-anchor="middle" x="261.53" y="-272.85" font-family="Helvetica,sans-Serif" font-size="10.00" fill="white">kernels</text>
</g>
<!-- fealax_fe&#45;&gt;fealax_problem_kernels -->
<g id="edge6" class="edge">
<title>fealax_fe&#45;&gt;fealax_problem_kernels</title><style>.edge>path:hover{stroke-width:8}</style>
<path fill="none" stroke="black" d="M291.75,-419.68C310.37,-407.12 332.37,-388.14 341.53,-364.35"/>
<path fill="none" stroke="black" d="M341.53,-362.35C346.25,-350.09 322.61,-329.24 299.83,-312.64"/>
<polygon fill="blue" stroke="black" points="301.71,-309.68 291.53,-306.73 297.65,-315.38 301.71,-309.68"/>
</g>
<!-- fealax_problem_core -->
<g id="node13" class="node">
<title>fealax_problem_core</title><style>.edge>path:hover{stroke-width:8}</style>
<polygon fill="blue" stroke="black" points="411.03,-189.64 328.03,-189.64 328.03,-153.64 411.03,-153.64 411.03,-189.64"/>
<text text-anchor="middle" x="369.53" y="-174.64" font-family="Helvetica,sans-Serif" font-size="10.00" fill="white">fealax.</text>
<text text-anchor="middle" x="369.53" y="-163.64" font-family="Helvetica,sans-Serif" font-size="10.00" fill="white">problem_core</text>
</g>
<!-- fealax_fe&#45;&gt;fealax_problem_core -->
<g id="edge7" class="edge">
<title>fealax_fe&#45;&gt;fealax_problem_core</title><style>.edge>path:hover{stroke-width:8}</style>
<path fill="none" stroke="black" d="M341.53,-362.35C352.54,-333.73 372.93,-335.98 382.53,-306.85 388.23,-289.54 390.04,-282.45 382.53,-265.85 372.53,-243.76 329.29,-250.79 341.53,-229.85"/>
</g>
<!-- fealax_large_solver -->
<g id="node5" class="node">
<title>fealax_large_solver</title><style>.edge>path:hover{stroke-width:8}</style>
<polygon fill="blue" stroke="black" points="559.03,-111.21 482.03,-111.21 482.03,-75.21 559.03,-75.21 559.03,-111.21"/>
<text text-anchor="middle" x="520.53" y="-96.21" font-family="Helvetica,sans-Serif" font-size="10.00" fill="white">fealax.</text>
<text text-anchor="middle" x="520.53" y="-85.21" font-family="Helvetica,sans-Serif" font-size="10.00" fill="white">large_solver</text>
</g>
<!-- fealax_large_solver&#45;&gt;fealax -->
<g id="edge8" class="edge">
<title>fealax_large_solver&#45;&gt;fealax</title><style>.edge>path:hover{stroke-width:8}</style>
<path fill="none" stroke="black" d="M520.53,-74.86C520.53,-66.38 520.53,-55.98 520.53,-46.45"/>
<polygon fill="blue" stroke="black" points="524.03,-46.23 520.53,-36.23 517.03,-46.23 524.03,-46.23"/>
</g>
<!-- fealax_logger_setup -->
<g id="node6" class="node">
<title>fealax_logger_setup</title><style>.edge>path:hover{stroke-width:8}</style>
<ellipse fill="#85c247" stroke="black" cx="736.53" cy="-93.21" rx="56.64" ry="21.43"/>
<text text-anchor="middle" x="736.53" y="-96.21" font-family="Helvetica,sans-Serif" font-size="10.00" fill="#000000">fealax.</text>
<text text-anchor="middle" x="736.53" y="-85.21" font-family="Helvetica,sans-Serif" font-size="10.00" fill="#000000">logger_setup</text>
</g>
<!-- fealax_logger_setup&#45;&gt;fealax -->
<g id="edge9" class="edge">
<title>fealax_logger_setup&#45;&gt;fealax</title><style>.edge>path:hover{stroke-width:8}</style>
<path fill="none" stroke="black" d="M695.9,-78.44C656.07,-64.94 595.9,-44.55 557.41,-31.5"/>
<polygon fill="#85c247" stroke="black" points="558.24,-28.09 547.65,-28.19 555.99,-34.72 558.24,-28.09"/>
</g>
<!-- fealax_memory_utils -->
<g id="node7" class="node">
<title>fealax_memory_utils</title><style>.edge>path:hover{stroke-width:8}</style>
<ellipse fill="#85ce3b" stroke="black" cx="564.53" cy="-171.64" rx="59.29" ry="21.43"/>
<text text-anchor="middle" x="564.53" y="-174.64" font-family="Helvetica,sans-Serif" font-size="10.00" fill="#000000">fealax.</text>
<text text-anchor="middle" x="564.53" y="-163.64" font-family="Helvetica,sans-Serif" font-size="10.00" fill="#000000">memory_utils</text>
</g>
<!-- fealax_memory_utils&#45;&gt;fealax -->
<g id="edge10" class="edge">
<title>fealax_memory_utils&#45;&gt;fealax</title><style>.edge>path:hover{stroke-width:8}</style>
<path fill="none" stroke="black" d="M604.1,-155.7C630.6,-142.94 659.32,-122.2 651.53,-94.21"/>
<path fill="none" stroke="black" d="M651.53,-92.21C640.36,-52.12 592.13,-33.56 557.43,-25.26"/>
<polygon fill="#85ce3b" stroke="black" points="558.12,-21.83 547.6,-23.1 556.61,-28.67 558.12,-21.83"/>
</g>
<!-- fealax_memory_utils&#45;&gt;fealax_large_solver -->
<g id="edge11" class="edge">
<title>fealax_memory_utils&#45;&gt;fealax_large_solver</title><style>.edge>path:hover{stroke-width:8}</style>
<path fill="none" stroke="black" d="M552.97,-150.56C547.59,-141.21 541.12,-129.98 535.38,-120.02"/>
<polygon fill="#85ce3b" stroke="black" points="538.39,-118.23 530.37,-111.31 532.33,-121.72 538.39,-118.23"/>
</g>
<!-- fealax_mesh&#45;&gt;fealax -->
<g id="edge12" class="edge">
<title>fealax_mesh&#45;&gt;fealax</title><style>.edge>path:hover{stroke-width:8}</style>
<path fill="none" stroke="black" d="M125.99,-491.58C142.26,-479.28 160.62,-461.03 165.53,-438.85"/>
<path fill="none" stroke="black" d="M165.53,-436.85C172.49,-405.39 157.95,-395.67 165.53,-364.35"/>
</g>
<!-- fealax_mesh&#45;&gt;fealax_fe -->
<g id="edge13" class="edge">
<title>fealax_mesh&#45;&gt;fealax_fe</title><style>.edge>path:hover{stroke-width:8}</style>
<path fill="none" stroke="black" d="M137.16,-492.26C162.7,-481.29 196.1,-466.95 221.85,-455.89"/>
<polygon fill="blue" stroke="black" points="223.51,-458.99 231.32,-451.83 220.75,-452.56 223.51,-458.99"/>
</g>
<!-- fealax_mesh&#45;&gt;fealax_problem_core -->
<g id="edge14" class="edge">
<title>fealax_mesh&#45;&gt;fealax_problem_core</title><style>.edge>path:hover{stroke-width:8}</style>
<path fill="none" stroke="black" d="M136.81,-491.85C152.25,-483.17 168.89,-471.17 179.53,-455.85 228.91,-384.74 163.52,-329.21 222.53,-265.85 260.18,-225.41 312.56,-276.91 341.53,-229.85"/>
<path fill="none" stroke="black" d="M341.53,-228.85C347.25,-219.32 352.86,-208.46 357.53,-198.84"/>
<polygon fill="blue" stroke="black" points="360.73,-200.27 361.87,-189.73 354.41,-197.26 360.73,-200.27"/>
</g>
<!-- fealax_utils -->
<g id="node22" class="node">
<title>fealax_utils</title><style>.edge>path:hover{stroke-width:8}</style>
<polygon fill="blue" stroke="black" points="134.03,-455.85 63.03,-455.85 63.03,-419.85 134.03,-419.85 134.03,-455.85"/>
<text text-anchor="middle" x="98.53" y="-435.35" font-family="Helvetica,sans-Serif" font-size="10.00" fill="white">fealax.utils</text>
</g>
<!-- fealax_mesh&#45;&gt;fealax_utils -->
<g id="edge15" class="edge">
<title>fealax_mesh&#45;&gt;fealax_utils</title><style>.edge>path:hover{stroke-width:8}</style>
<path fill="none" stroke="black" d="M98.53,-491.55C98.53,-483.84 98.53,-474.57 98.53,-465.97"/>
<polygon fill="blue" stroke="black" points="102.03,-465.96 98.53,-455.96 95.03,-465.96 102.03,-465.96"/>
</g>
<!-- fealax_problem -->
<g id="node9" class="node">
<title>fealax_problem</title><style>.edge>path:hover{stroke-width:8}</style>
<polygon fill="blue" stroke="black" points="439.03,-111.21 348.03,-111.21 348.03,-75.21 439.03,-75.21 439.03,-111.21"/>
<text text-anchor="middle" x="393.53" y="-90.71" font-family="Helvetica,sans-Serif" font-size="10.00" fill="white">fealax.problem</text>
</g>
<!-- fealax_problem&#45;&gt;fealax -->
<g id="edge16" class="edge">
<title>fealax_problem&#45;&gt;fealax</title><style>.edge>path:hover{stroke-width:8}</style>
<path fill="none" stroke="black" d="M423.3,-75.05C441.53,-64.54 464.98,-51.02 484.29,-39.89"/>
<polygon fill="blue" stroke="black" points="486.19,-42.83 493.11,-34.81 482.7,-36.77 486.19,-42.83"/>
</g>
<!-- fealax_problem_assembly&#45;&gt;fealax_problem_core -->
<g id="edge18" class="edge">
<title>fealax_problem_assembly&#45;&gt;fealax_problem_core</title><style>.edge>path:hover{stroke-width:8}</style>
<path fill="none" stroke="black" d="M336.9,-265.85C335.3,-254.59 335.26,-240.58 341.53,-229.85"/>
</g>
<!-- fealax_problem_boundary_conditions -->
<g id="node11" class="node">
<title>fealax_problem_boundary_conditions</title><style>.edge>path:hover{stroke-width:8}</style>
<polygon fill="blue" stroke="black" points="487.53,-383.85 369.53,-383.85 369.53,-342.85 487.53,-342.85 487.53,-383.85"/>
<text text-anchor="middle" x="428.53" y="-371.85" font-family="Helvetica,sans-Serif" font-size="10.00" fill="white">fealax.</text>
<text text-anchor="middle" x="428.53" y="-360.85" font-family="Helvetica,sans-Serif" font-size="10.00" fill="white">problem.</text>
<text text-anchor="middle" x="428.53" y="-349.85" font-family="Helvetica,sans-Serif" font-size="10.00" fill="white">boundary_conditions</text>
</g>
<!-- fealax_problem_boundary_conditions&#45;&gt;fealax_problem -->
<g id="edge19" class="edge">
<title>fealax_problem_boundary_conditions&#45;&gt;fealax_problem</title><style>.edge>path:hover{stroke-width:8}</style>
<path fill="none" stroke="black" d="M439.53,-228.85C428.64,-194.57 431.57,-184.32 419.53,-150.43 416,-140.5 411.36,-129.94 406.99,-120.68"/>
<polygon fill="blue" stroke="black" points="410.09,-119.06 402.57,-111.59 403.79,-122.11 410.09,-119.06"/>
</g>
<!-- fealax_problem_boundary_conditions&#45;&gt;fealax_problem_assembly -->
<g id="edge20" class="edge">
<title>fealax_problem_boundary_conditions&#45;&gt;fealax_problem_assembly</title><style>.edge>path:hover{stroke-width:8}</style>
<path fill="none" stroke="black" d="M405.67,-342.65C395.38,-333.78 383.08,-323.18 372.02,-313.64"/>
<polygon fill="blue" stroke="black" points="374.09,-310.81 364.23,-306.93 369.52,-316.11 374.09,-310.81"/>
</g>
<!-- fealax_problem_boundary_conditions&#45;&gt;fealax_problem_core -->
<g id="edge21" class="edge">
<title>fealax_problem_boundary_conditions&#45;&gt;fealax_problem_core</title><style>.edge>path:hover{stroke-width:8}</style>
<path fill="none" stroke="black" d="M434.4,-342.64C441.27,-316.39 450.4,-268.76 439.53,-229.85"/>
<path fill="none" stroke="black" d="M439.53,-228.85C435.2,-215.23 424.98,-204.15 413.66,-195.54"/>
<polygon fill="blue" stroke="black" points="415.49,-192.55 405.28,-189.71 411.49,-198.29 415.49,-192.55"/>
</g>
<!-- fealax_problem_kernels&#45;&gt;fealax_problem -->
<g id="edge22" class="edge">
<title>fealax_problem_kernels&#45;&gt;fealax_problem</title><style>.edge>path:hover{stroke-width:8}</style>
<path fill="none" stroke="black" d="M266.29,-265.81C273.79,-237.96 290.49,-186.28 318.53,-150.43 328.56,-137.6 342.21,-126.21 355.12,-117.09"/>
<polygon fill="blue" stroke="black" points="357.14,-119.95 363.44,-111.44 353.2,-114.16 357.14,-119.95"/>
</g>
<!-- fealax_problem_kernels&#45;&gt;fealax_problem_core -->
<g id="edge23" class="edge">
<title>fealax_problem_kernels&#45;&gt;fealax_problem_core</title><style>.edge>path:hover{stroke-width:8}</style>
<path fill="none" stroke="black" d="M291.81,-268.04C311.86,-255.93 335.51,-240.14 341.53,-229.85"/>
</g>
<!-- fealax_problem_core&#45;&gt;fealax_problem -->
<g id="edge24" class="edge">
<title>fealax_problem_core&#45;&gt;fealax_problem</title><style>.edge>path:hover{stroke-width:8}</style>
<path fill="none" stroke="black" d="M378.05,-143.5C380.34,-136.19 382.83,-128.29 385.12,-121"/>
<polygon fill="blue" stroke="black" points="374.63,-142.71 374.97,-153.3 381.31,-144.81 374.63,-142.71"/>
<polygon fill="blue" stroke="black" points="388.53,-121.81 388.19,-111.22 381.85,-119.72 388.53,-121.81"/>
</g>
<!-- fealax_solver -->
<g id="node14" class="node">
<title>fealax_solver</title><style>.edge>path:hover{stroke-width:8}</style>
<polygon fill="blue" stroke="black" points="555.53,-527.85 475.53,-527.85 475.53,-491.85 555.53,-491.85 555.53,-527.85"/>
<text text-anchor="middle" x="515.53" y="-507.35" font-family="Helvetica,sans-Serif" font-size="10.00" fill="white">fealax.solver</text>
</g>
<!-- fealax_solver&#45;&gt;fealax -->
<g id="edge25" class="edge">
<title>fealax_solver&#45;&gt;fealax</title><style>.edge>path:hover{stroke-width:8}</style>
<path fill="none" stroke="black" d="M515.53,-228.85C509.92,-174.74 596.19,-233.35 632.53,-192.85 662.34,-159.62 663.5,-137.22 651.53,-94.21"/>
</g>
<!-- fealax_solver&#45;&gt;fealax_large_solver -->
<g id="edge26" class="edge">
<title>fealax_solver&#45;&gt;fealax_large_solver</title><style>.edge>path:hover{stroke-width:8}</style>
<path fill="none" stroke="black" d="M515.53,-228.85C512.77,-210.97 500.88,-210.41 496.53,-192.85 491.99,-174.55 492.75,-168.9 496.53,-150.43 498.61,-140.24 502.61,-129.62 506.76,-120.39"/>
<polygon fill="blue" stroke="black" points="509.93,-121.88 511.07,-111.34 503.61,-118.87 509.93,-121.88"/>
</g>
<!-- fealax_solver&#45;&gt;fealax_problem_boundary_conditions -->
<g id="edge27" class="edge">
<title>fealax_solver&#45;&gt;fealax_problem_boundary_conditions</title><style>.edge>path:hover{stroke-width:8}</style>
<path fill="none" stroke="black" d="M517.98,-491.84C519.47,-477.46 520.29,-456.45 515.53,-438.85"/>
<path fill="none" stroke="black" d="M515.53,-436.85C510.19,-417.14 494.86,-401.48 478.52,-389.84"/>
<polygon fill="blue" stroke="black" points="480.2,-386.75 469.93,-384.12 476.32,-392.58 480.2,-386.75"/>
</g>
<!-- fealax_solver&#45;&gt;fealax_problem_core -->
<g id="edge28" class="edge">
<title>fealax_solver&#45;&gt;fealax_problem_core</title><style>.edge>path:hover{stroke-width:8}</style>
<path fill="none" stroke="black" d="M515.53,-436.85C491.5,-348.05 527.93,-321.01 515.53,-229.85"/>
<path fill="none" stroke="black" d="M515.53,-228.85C512.4,-208.52 461.83,-192.56 421.08,-182.93"/>
<polygon fill="blue" stroke="black" points="421.76,-179.49 411.23,-180.67 420.2,-186.31 421.76,-179.49"/>
</g>
<!-- fealax_solver_boundary_conditions -->
<g id="node15" class="node">
<title>fealax_solver_boundary_conditions</title><style>.edge>path:hover{stroke-width:8}</style>
<ellipse fill="#85db2f" stroke="black" cx="649.53" cy="-823.84" rx="83.38" ry="28.98"/>
<text text-anchor="middle" x="649.53" y="-832.34" font-family="Helvetica,sans-Serif" font-size="10.00" fill="#000000">fealax.</text>
<text text-anchor="middle" x="649.53" y="-821.34" font-family="Helvetica,sans-Serif" font-size="10.00" fill="#000000">solver.</text>
<text text-anchor="middle" x="649.53" y="-810.34" font-family="Helvetica,sans-Serif" font-size="10.00" fill="#000000">boundary_conditions</text>
</g>
<!-- fealax_solver_boundary_conditions&#45;&gt;fealax_solver -->
<g id="edge29" class="edge">
<title>fealax_solver_boundary_conditions&#45;&gt;fealax_solver</title><style>.edge>path:hover{stroke-width:8}</style>
<path fill="none" stroke="black" d="M686.53,-737.35C679.15,-704.85 688.36,-695.64 686.53,-662.35"/>
</g>
<!-- fealax_solver_newton_solvers -->
<g id="node19" class="node">
<title>fealax_solver_newton_solvers</title><style>.edge>path:hover{stroke-width:8}</style>
<polygon fill="blue" stroke="black" points="622.03,-758.85 529.03,-758.85 529.03,-717.85 622.03,-717.85 622.03,-758.85"/>
<text text-anchor="middle" x="575.53" y="-746.85" font-family="Helvetica,sans-Serif" font-size="10.00" fill="white">fealax.</text>
<text text-anchor="middle" x="575.53" y="-735.85" font-family="Helvetica,sans-Serif" font-size="10.00" fill="white">solver.</text>
<text text-anchor="middle" x="575.53" y="-724.85" font-family="Helvetica,sans-Serif" font-size="10.00" fill="white">newton_solvers</text>
</g>
<!-- fealax_solver_boundary_conditions&#45;&gt;fealax_solver_newton_solvers -->
<g id="edge30" class="edge">
<title>fealax_solver_boundary_conditions&#45;&gt;fealax_solver_newton_solvers</title><style>.edge>path:hover{stroke-width:8}</style>
<path fill="none" stroke="black" d="M625.71,-795.97C617.39,-786.58 608.05,-776.04 599.7,-766.63"/>
<polygon fill="#85db2f" stroke="black" points="602.22,-764.19 592.97,-759.03 596.98,-768.84 602.22,-764.19"/>
</g>
<!-- fealax_solver_solver_utils -->
<g id="node21" class="node">
<title>fealax_solver_solver_utils</title><style>.edge>path:hover{stroke-width:8}</style>
<polygon fill="blue" stroke="black" points="546.03,-681.85 473.03,-681.85 473.03,-640.85 546.03,-640.85 546.03,-681.85"/>
<text text-anchor="middle" x="509.53" y="-669.85" font-family="Helvetica,sans-Serif" font-size="10.00" fill="white">fealax.</text>
<text text-anchor="middle" x="509.53" y="-658.85" font-family="Helvetica,sans-Serif" font-size="10.00" fill="white">solver.</text>
<text text-anchor="middle" x="509.53" y="-647.85" font-family="Helvetica,sans-Serif" font-size="10.00" fill="white">solver_utils</text>
</g>
<!-- fealax_solver_boundary_conditions&#45;&gt;fealax_solver_solver_utils -->
<g id="edge31" class="edge">
<title>fealax_solver_boundary_conditions&#45;&gt;fealax_solver_solver_utils</title><style>.edge>path:hover{stroke-width:8}</style>
<path fill="none" stroke="black" d="M671.64,-795.57C681.91,-779.69 690.98,-758.99 686.53,-739.35"/>
<path fill="none" stroke="black" d="M686.53,-737.35C674.38,-683.84 604.81,-668.13 556.6,-663.73"/>
<polygon fill="#85db2f" stroke="black" points="556.6,-660.22 546.36,-662.94 556.06,-667.2 556.6,-660.22"/>
</g>
<!-- fealax_solver_jit_solvers -->
<g id="node16" class="node">
<title>fealax_solver_jit_solvers</title><style>.edge>path:hover{stroke-width:8}</style>
<polygon fill="blue" stroke="black" points="472.03,-844.34 405.03,-844.34 405.03,-803.34 472.03,-803.34 472.03,-844.34"/>
<text text-anchor="middle" x="438.53" y="-832.34" font-family="Helvetica,sans-Serif" font-size="10.00" fill="white">fealax.</text>
<text text-anchor="middle" x="438.53" y="-821.34" font-family="Helvetica,sans-Serif" font-size="10.00" fill="white">solver.</text>
<text text-anchor="middle" x="438.53" y="-810.34" font-family="Helvetica,sans-Serif" font-size="10.00" fill="white">jit_solvers</text>
</g>
<!-- fealax_solver_jit_solvers&#45;&gt;fealax_solver -->
<g id="edge32" class="edge">
<title>fealax_solver_jit_solvers&#45;&gt;fealax_solver</title><style>.edge>path:hover{stroke-width:8}</style>
<path fill="none" stroke="black" d="M436.62,-803.11C435.42,-786.08 434.74,-760.91 438.53,-739.35"/>
</g>
<!-- fealax_solver_jit_solvers&#45;&gt;fealax_solver_newton_solvers -->
<g id="edge33" class="edge">
<title>fealax_solver_jit_solvers&#45;&gt;fealax_solver_newton_solvers</title><style>.edge>path:hover{stroke-width:8}</style>
<path fill="none" stroke="black" d="M470.65,-803.27C489.66,-791.68 513.95,-776.88 534.36,-764.44"/>
<polygon fill="blue" stroke="black" points="536.42,-767.29 543.13,-759.09 532.77,-761.31 536.42,-767.29"/>
</g>
<!-- fealax_solver_linear_algebra -->
<g id="node17" class="node">
<title>fealax_solver_linear_algebra</title><style>.edge>path:hover{stroke-width:8}</style>
<ellipse fill="#85e722" stroke="black" cx="467.53" cy="-994.83" rx="60.62" ry="28.98"/>
<text text-anchor="middle" x="467.53" y="-1003.33" font-family="Helvetica,sans-Serif" font-size="10.00" fill="#000000">fealax.</text>
<text text-anchor="middle" x="467.53" y="-992.33" font-family="Helvetica,sans-Serif" font-size="10.00" fill="#000000">solver.</text>
<text text-anchor="middle" x="467.53" y="-981.33" font-family="Helvetica,sans-Serif" font-size="10.00" fill="#000000">linear_algebra</text>
</g>
<!-- fealax_solver_linear_algebra&#45;&gt;fealax_solver -->
<g id="edge34" class="edge">
<title>fealax_solver_linear_algebra&#45;&gt;fealax_solver</title><style>.edge>path:hover{stroke-width:8}</style>
<path fill="none" stroke="black" d="M427.8,-972.76C406.37,-958.55 383,-937.45 376.53,-910.34"/>
<path fill="none" stroke="black" d="M376.53,-908.34C364.65,-858.59 375.02,-841.7 395.53,-794.85 408.04,-766.27 433.13,-770.09 438.53,-739.35"/>
<path fill="none" stroke="black" d="M438.53,-737.35C448.82,-670.59 426.1,-651.76 438.53,-585.35"/>
<path fill="none" stroke="black" d="M438.53,-583.35C442.38,-562.76 458.1,-546.12 474.34,-534"/>
<polygon fill="#85e722" stroke="black" points="476.62,-536.67 482.82,-528.08 472.61,-530.93 476.62,-536.67"/>
</g>
<!-- fealax_solver_linear_algebra&#45;&gt;fealax_solver_jit_solvers -->
<g id="edge35" class="edge">
<title>fealax_solver_linear_algebra&#45;&gt;fealax_solver_jit_solvers</title><style>.edge>path:hover{stroke-width:8}</style>
<path fill="none" stroke="black" d="M376.53,-908.34C371.37,-886.75 385.46,-866.65 401.49,-851.58"/>
<polygon fill="#85e722" stroke="black" points="404.24,-853.83 409.45,-844.61 399.62,-848.57 404.24,-853.83"/>
</g>
<!-- fealax_solver_linear_solvers -->
<g id="node18" class="node">
<title>fealax_solver_linear_solvers</title><style>.edge>path:hover{stroke-width:8}</style>
<polygon fill="blue" stroke="black" points="510.03,-929.84 425.03,-929.84 425.03,-888.84 510.03,-888.84 510.03,-929.84"/>
<text text-anchor="middle" x="467.53" y="-917.84" font-family="Helvetica,sans-Serif" font-size="10.00" fill="white">fealax.</text>
<text text-anchor="middle" x="467.53" y="-906.84" font-family="Helvetica,sans-Serif" font-size="10.00" fill="white">solver.</text>
<text text-anchor="middle" x="467.53" y="-895.84" font-family="Helvetica,sans-Serif" font-size="10.00" fill="white">linear_solvers</text>
</g>
<!-- fealax_solver_linear_algebra&#45;&gt;fealax_solver_linear_solvers -->
<g id="edge36" class="edge">
<title>fealax_solver_linear_algebra&#45;&gt;fealax_solver_linear_solvers</title><style>.edge>path:hover{stroke-width:8}</style>
<path fill="none" stroke="black" d="M467.53,-965.56C467.53,-957.31 467.53,-948.28 467.53,-939.95"/>
<polygon fill="#85e722" stroke="black" points="471.03,-939.88 467.53,-929.88 464.03,-939.88 471.03,-939.88"/>
</g>
<!-- fealax_solver_linear_algebra&#45;&gt;fealax_solver_newton_solvers -->
<g id="edge37" class="edge">
<title>fealax_solver_linear_algebra&#45;&gt;fealax_solver_newton_solvers</title><style>.edge>path:hover{stroke-width:8}</style>
<path fill="none" stroke="black" d="M491.89,-968.06C501.3,-956.98 511.48,-943.47 518.53,-929.84 547.2,-874.36 539.23,-854.56 557.53,-794.85 560.12,-786.38 563.05,-777.23 565.77,-768.84"/>
<polygon fill="#85e722" stroke="black" points="569.18,-769.67 568.96,-759.08 562.52,-767.5 569.18,-769.67"/>
</g>
<!-- fealax_solver_linear_solvers&#45;&gt;fealax_solver -->
<g id="edge38" class="edge">
<title>fealax_solver_linear_solvers&#45;&gt;fealax_solver</title><style>.edge>path:hover{stroke-width:8}</style>
<path fill="none" stroke="black" d="M510.25,-906.07C579.84,-901.39 712.8,-887.97 741.53,-852.84 776.13,-810.52 688.94,-706.22 686.53,-662.35"/>
</g>
<!-- fealax_solver_linear_solvers&#45;&gt;fealax_solver_jit_solvers -->
<g id="edge39" class="edge">
<title>fealax_solver_linear_solvers&#45;&gt;fealax_solver_jit_solvers</title><style>.edge>path:hover{stroke-width:8}</style>
<path fill="none" stroke="black" d="M460.65,-888.55C457.08,-878.26 452.64,-865.47 448.68,-854.06"/>
<polygon fill="blue" stroke="black" points="451.94,-852.79 445.35,-844.49 445.33,-855.08 451.94,-852.79"/>
</g>
<!-- fealax_solver_linear_solvers&#45;&gt;fealax_solver_newton_solvers -->
<g id="edge40" class="edge">
<title>fealax_solver_linear_solvers&#45;&gt;fealax_solver_newton_solvers</title><style>.edge>path:hover{stroke-width:8}</style>
<path fill="none" stroke="black" d="M500.53,-822.84C509.59,-800.86 527.05,-780.86 542.85,-765.95"/>
<polygon fill="blue" stroke="black" points="545.39,-768.38 550.43,-759.06 540.67,-763.2 545.39,-768.38"/>
</g>
<!-- fealax_solver_linear_solvers&#45;&gt;fealax_solver_solver_utils -->
<g id="edge41" class="edge">
<title>fealax_solver_linear_solvers&#45;&gt;fealax_solver_solver_utils</title><style>.edge>path:hover{stroke-width:8}</style>
<path fill="none" stroke="black" d="M475.1,-888.7C481.69,-871.74 491.56,-846.6 500.53,-824.84"/>
<path fill="none" stroke="black" d="M500.53,-822.84C518.18,-780 516.72,-725.23 513.51,-692.01"/>
<polygon fill="blue" stroke="black" points="516.99,-691.6 512.43,-682.03 510.03,-692.35 516.99,-691.6"/>
</g>
<!-- fealax_solver_newton_solvers&#45;&gt;fealax_solver -->
<g id="edge42" class="edge">
<title>fealax_solver_newton_solvers&#45;&gt;fealax_solver</title><style>.edge>path:hover{stroke-width:8}</style>
<path fill="none" stroke="black" d="M622.03,-724.21C650.22,-713.11 681.67,-693.84 686.53,-662.35"/>
<path fill="none" stroke="black" d="M686.53,-660.35C696.68,-594.54 619.04,-550.51 565.01,-528.15"/>
<polygon fill="blue" stroke="black" points="566.14,-524.83 555.55,-524.36 563.53,-531.33 566.14,-524.83"/>
</g>
<!-- fealax_solver_newton_solvers&#45;&gt;fealax_solver_solver_utils -->
<g id="edge43" class="edge">
<title>fealax_solver_newton_solvers&#45;&gt;fealax_solver_solver_utils</title><style>.edge>path:hover{stroke-width:8}</style>
<path fill="none" stroke="black" d="M558.19,-717.65C550.61,-709.04 541.59,-698.79 533.4,-689.48"/>
<polygon fill="blue" stroke="black" points="535.99,-687.12 526.75,-681.93 530.73,-691.75 535.99,-687.12"/>
</g>
<!-- fealax_solver_newton_wrapper -->
<g id="node20" class="node">
<title>fealax_solver_newton_wrapper</title><style>.edge>path:hover{stroke-width:8}</style>
<polygon fill="blue" stroke="black" points="564.53,-604.85 466.53,-604.85 466.53,-563.85 564.53,-563.85 564.53,-604.85"/>
<text text-anchor="middle" x="515.53" y="-592.85" font-family="Helvetica,sans-Serif" font-size="10.00" fill="white">fealax.</text>
<text text-anchor="middle" x="515.53" y="-581.85" font-family="Helvetica,sans-Serif" font-size="10.00" fill="white">solver.</text>
<text text-anchor="middle" x="515.53" y="-570.85" font-family="Helvetica,sans-Serif" font-size="10.00" fill="white">newton_wrapper</text>
</g>
<!-- fealax_solver_newton_wrapper&#45;&gt;fealax_solver -->
<g id="edge44" class="edge">
<title>fealax_solver_newton_wrapper&#45;&gt;fealax_solver</title><style>.edge>path:hover{stroke-width:8}</style>
<path fill="none" stroke="black" d="M515.53,-563.54C515.53,-555.76 515.53,-546.69 515.53,-538.3"/>
<polygon fill="blue" stroke="black" points="519.03,-538.17 515.53,-528.17 512.03,-538.17 519.03,-538.17"/>
</g>
<!-- fealax_solver_solver_utils&#45;&gt;fealax_solver -->
<g id="edge45" class="edge">
<title>fealax_solver_solver_utils&#45;&gt;fealax_solver</title><style>.edge>path:hover{stroke-width:8}</style>
<path fill="none" stroke="black" d="M472.63,-640.98C453.19,-627.83 434.17,-608.62 438.53,-585.35"/>
</g>
<!-- fealax_solver_solver_utils&#45;&gt;fealax_solver_newton_wrapper -->
<g id="edge46" class="edge">
<title>fealax_solver_solver_utils&#45;&gt;fealax_solver_newton_wrapper</title><style>.edge>path:hover{stroke-width:8}</style>
<path fill="none" stroke="black" d="M511.1,-640.65C511.73,-632.81 512.47,-623.62 513.15,-615.01"/>
<polygon fill="blue" stroke="black" points="516.65,-615.17 513.96,-604.93 509.67,-614.62 516.65,-615.17"/>
</g>
<!-- fealax_utils&#45;&gt;fealax -->
<g id="edge47" class="edge">
<title>fealax_utils&#45;&gt;fealax</title><style>.edge>path:hover{stroke-width:8}</style>
<path fill="none" stroke="black" d="M124.95,-419.58C141.49,-406.74 160.57,-387.48 165.53,-364.35"/>
<path fill="none" stroke="black" d="M165.53,-362.35C177.88,-304.77 165.53,-288.74 165.53,-229.85 165.53,-229.85 165.53,-229.85 165.53,-170.64 165.53,-33.65 391.86,-18.75 483.08,-18.3"/>
<polygon fill="blue" stroke="black" points="483.26,-21.8 493.26,-18.31 483.26,-14.8 483.26,-21.8"/>
</g>
<!-- meshio -->
<g id="node23" class="node">
<title>meshio</title><style>.edge>path:hover{stroke-width:8}</style>
<ellipse fill="#33cccc" stroke="black" cx="52.53" cy="-661.35" rx="31.4" ry="18"/>
<text text-anchor="middle" x="52.53" y="-658.85" font-family="Helvetica,sans-Serif" font-size="10.00" fill="#000000">meshio</text>
</g>
<!-- meshio&#45;&gt;fealax_mesh -->
<g id="edge48" class="edge">
<title>meshio&#45;&gt;fealax_mesh</title><style>.edge>path:hover{stroke-width:8}</style>
<path fill="none" stroke="black" d="M31.53,-583.35C33.07,-563.6 46.88,-546.91 61.57,-534.53"/>
<polygon fill="#33cccc" stroke="black" points="64.04,-537.04 69.74,-528.11 59.72,-531.54 64.04,-537.04"/>
</g>
<!-- meshio&#45;&gt;fealax_utils -->
<g id="edge49" class="edge">
<title>meshio&#45;&gt;fealax_utils</title><style>.edge>path:hover{stroke-width:8}</style>
<path fill="none" stroke="black" d="M44.28,-643.72C37.73,-628.74 29.91,-605.98 31.53,-585.35"/>
<path fill="none" stroke="black" d="M31.53,-583.35C34.04,-551.23 16.09,-539.14 31.53,-510.85"/>
</g>
<!-- numpy -->
<g id="node24" class="node">
<title>numpy</title><style>.edge>path:hover{stroke-width:8}</style>
<ellipse fill="#7f26d9" stroke="black" cx="42.53" cy="-738.35" rx="29.37" ry="18"/>
<text text-anchor="middle" x="42.53" y="-735.85" font-family="Helvetica,sans-Serif" font-size="10.00" fill="#ffffff">numpy</text>
</g>
<!-- numpy&#45;&gt;fealax_basis -->
<g id="edge50" class="edge">
<title>numpy&#45;&gt;fealax_basis</title><style>.edge>path:hover{stroke-width:8}</style>
<path fill="none" stroke="black" d="M111.53,-660.35C121.06,-642.85 134.05,-624.67 144.91,-610.6"/>
<polygon fill="#7f26d9" stroke="black" points="147.91,-612.43 151.34,-602.41 142.41,-608.11 147.91,-612.43"/>
</g>
<!-- numpy&#45;&gt;fealax_mesh -->
<g id="edge51" class="edge">
<title>numpy&#45;&gt;fealax_mesh</title><style>.edge>path:hover{stroke-width:8}</style>
<path fill="none" stroke="black" d="M59.55,-723.33C75.3,-709.43 98.25,-686.75 111.53,-662.35"/>
<path fill="none" stroke="black" d="M111.53,-660.35C122.64,-639.94 111.95,-575.38 104.45,-538.11"/>
<polygon fill="#7f26d9" stroke="black" points="107.8,-537.03 102.35,-527.94 100.94,-538.45 107.8,-537.03"/>
</g>
<!-- numpy&#45;&gt;fealax_utils -->
<g id="edge52" class="edge">
<title>numpy&#45;&gt;fealax_utils</title><style>.edge>path:hover{stroke-width:8}</style>
<path fill="none" stroke="black" d="M31.03,-721.25C24.18,-710.62 16.13,-696.08 12.53,-681.85 -6.23,-607.72 -5.1,-577.98 31.53,-510.85"/>
<path fill="none" stroke="black" d="M31.53,-508.85C40.34,-491.25 55.1,-475.11 68.53,-462.78"/>
<polygon fill="#7f26d9" stroke="black" points="71.05,-465.22 76.22,-455.97 66.41,-459.98 71.05,-465.22"/>
</g>
</g>
</svg>
